<?xml version="1.0" encoding="utf-8"?>
<!-- Generator: Adobe Illustrator 23.0.4, SVG Export Plug-In . SVG Version: 6.00 Build 0)  -->
<svg version="1.1" id="Layer_1" xmlns="http://www.w3.org/2000/svg" xmlns:xlink="http://www.w3.org/1999/xlink" x="0px" y="0px"
	 viewBox="0 0 1878.1 454.9" style="enable-background:new 0 0 1878.1 454.9;" xml:space="preserve">
<style type="text/css">
	.st0{fill:#FFFFFF;}
	.st1{fill:url(#SVGID_1_);}
	.st2{opacity:0.35;fill-rule:evenodd;clip-rule:evenodd;fill:url(#SVGID_2_);}
	.st3{fill:none;stroke:#FFFFFF;stroke-width:2.6213;stroke-miterlimit:10;}
	.st4{fill:none;stroke:#F26222;stroke-width:4.5872;stroke-miterlimit:10;}
	.st5{fill:none;stroke:#FFFFFF;stroke-width:4.3215;stroke-miterlimit:10;}
	.st6{fill:none;stroke:#F26222;stroke-width:2.6213;stroke-miterlimit:10;}
	.st7{fill:none;stroke:#FFFFFF;stroke-width:4.5872;stroke-miterlimit:10;}
	.st8{fill:#F26222;}
	.st9{fill:none;stroke:#F26222;stroke-width:2.4977;stroke-miterlimit:10;}
	.st10{font-family:'DINEngschriftLT-Alternate';}
	.st11{font-size:119.2003px;}
	.st12{fill:none;}
</style>
<path class="st0" d="M380.2,70.3c-2.4,0-5.8,0.9-8.6,5.8c-2,3.5-3.1,7.6-3.1,12.4l-0.1,107.1c0,4.8,1,9,3.1,12.5
	c2.8,4.8,6.3,5.8,8.7,5.8c2.4,0,5.8-0.9,8.6-5.8c2-3.5,3.1-7.6,3.1-12.4l0.1-107.2c0-4.8-1-8.9-3.1-12.4
	C386,71.3,382.6,70.3,380.2,70.3z"/>
<path class="st0" d="M554.2,70.3c-2.4,0-5.9,1-8.6,5.8c-2,3.5-3.1,7.6-3.1,12.5v62c0,7.4-0.3,13.1-0.8,16.9
	c-0.3,2.5-0.8,3.3-0.8,3.4c-0.2-0.1-0.8-0.3-2.1-1.4c-1.6-1.4-3.5-3.1-5.7-5.4l-85.5-88.2c-1.6-1.7-3.4-3-5.4-4.1
	c-2-1-4.1-1.6-6.3-1.6c-6,0-11.1,3.5-15.1,10.2c-3.8,6.4-5.7,14.3-5.7,23.4l-0.1,91.7c0,4.8,1,8.9,3.1,12.5c2.8,4.8,6.3,5.8,8.7,5.8
	c2.4,0,5.8-1,8.6-5.8c2-3.5,3.1-7.7,3.1-12.5v-62c0.1-7.8,0.3-13.2,0.8-17c0.3-2.4,0.8-3.2,0.8-3.3c0.2,0,0.8,0.3,2.1,1.4
	c1.5,1.4,3.5,3.1,5.7,5.4l85.5,88.3c1.6,1.6,3.4,3,5.3,4.1c2,1,4.2,1.6,6.3,1.6h0.1c6,0,11.1-3.5,15.1-10.3
	c3.8-6.3,5.7-14.2,5.7-23.4l0.1-91.7c0-4.8-1-8.9-3.1-12.5C560,71.3,556.6,70.3,554.2,70.3z"/>
<path class="st0" d="M751.3,70.3l-128.5-0.1c-2.4,0-5.9,1-8.7,5.8c-2,3.5-3.1,7.6-3.1,12.5c0,4.8,1,8.9,3.1,12.4
	c2.8,4.8,6.3,5.8,8.6,5.8l57.4,0.1c-1.4,4.8-2.5,9.7-3.4,15.1c-1,6.7-1.5,13.5-1.5,20.2l-0.1,53.6c0,4.8,1,9,3.1,12.4
	c2.8,4.8,6.3,5.9,8.7,5.9c2.4,0,5.8-1,8.6-5.8c2-3.4,3.1-7.6,3.1-12.5l0.1-53.6c0-3.4,0.2-7.3,0.8-11.6c0.5-4.1,1.3-8,2.6-11.4
	c1.3-3.5,2.9-6.2,5.1-8.6c2-2.2,4.5-3.4,7.3-3.7h38.1c3-0.6,5.6-2.7,7.6-6.3c2-3.4,2.9-7.4,2.9-11.9c0-4.8-1-9-3.1-12.5
	C757.8,72.3,754.8,70.3,751.3,70.3z"/>
<path class="st0" d="M786.4,70.2c-2.4,0-5.9,1-8.6,5.8c-2.1,3.5-3.1,7.7-3.1,12.5l-0.1,107.1c0,4.8,1,9,3.1,12.5
	c2.8,4.8,6.3,5.8,8.6,5.8h0.1c2.4,0,5.8-1,8.6-5.8c2-3.5,3.1-7.6,3.1-12.5l0.2-107.1c0-4.8-1.1-9-3.1-12.5
	C792.2,71.3,788.8,70.2,786.4,70.2z"/>
<path class="st0" d="M961.9,70.3c-3.6,0-7,1.4-10,4.2c-2.4,2.2-4.6,5.2-6.3,8.7L902,167.1c-0.5,0.9-1.3,1.9-2.1,2.9
	c-0.9,1.2-0.7,1.1-1.6,0c-0.9-1-1.6-2-2-2.8l-42.9-82.7c-2-3.7-4.4-7-7-9.8c-2.9-3-6.2-4.6-10-4.6c-6,0-10.8,3.5-14.2,10.4
	c-3.1,6.3-4.6,14.1-4.6,22.9l-0.1,92c0,4.8,1,9.1,3.1,12.5c2.8,4.8,6.3,5.8,8.6,5.8c2.4,0,5.9-1,8.7-5.8c2-3.4,3.1-7.6,3.1-12.4
	l0.1-68.7l0.1-4.7l0.9,1.8l41,78.8c2,3.6,4.3,6.4,7,8.1c5.6,3.7,12.6,3.7,18.2,0.1c2.7-1.9,5.1-4.7,7-8.2l41.2-78.7l0.9-1.8v4.7
	l-0.1,68.7c0,4.8,1,8.9,3.1,12.5c2.8,4.8,6.3,5.7,8.7,5.8c2.4,0,5.8-1,8.6-5.9c2.1-3.5,3.1-7.6,3.1-12.4l0.1-92
	c0-8.9-1.6-16.6-4.6-22.9C972,72.1,966.1,70.3,961.9,70.3z"/>
<g>
	<path class="st0" d="M1147.2,177.5l-117.8-0.2c-0.9,0-1.4-0.3-2-1c-0.7-1-1-2.2-1-3.7v-12.3l116.7,0.1c2.4,0,5.8-1,8.6-5.8
		c2-3.5,3.1-7.6,3.1-12.5c0-4.8-1.1-9-3.1-12.4c-2.8-4.8-6.3-5.8-8.6-5.8l-125.5-0.2c-4.8,0-8.4,1.2-10.8,3.6
		c-2.6,2.5-3.9,7-3.9,13.7l-0.1,28.4c0,6.5,0.7,12.5,2.2,17.9c1.4,5.2,3.3,9.9,5.6,13.8c2.4,4,5,7,8.1,9.2c3.1,2.3,6.4,3.5,9.7,3.5
		l118.7,0.1c2.4,0,5.8-1,8.7-5.8c2-3.5,3.1-7.6,3.1-12.5c0-4.8-1-8.9-3.1-12.4C1153,178.4,1149.6,177.5,1147.2,177.5z"/>
	<path class="st0" d="M1147.2,70.3l-132.5-0.1c-2.3,0-5.8,1-8.6,5.8c-2,3.5-3.1,7.7-3.1,12.5c0,4.8,1,9,3.1,12.5
		c2.9,4.8,6.3,5.8,8.7,5.8l132.5,0.1c2.4,0,5.8-1,8.6-5.8c2-3.5,3.1-7.6,3.1-12.5c0-4.8-1-8.9-3.1-12.4
		C1153,71.3,1149.5,70.3,1147.2,70.3z"/>
</g>
<path class="st0" d="M1347.1,70.3l-128.6-0.1c-2.4,0-5.9,1-8.7,5.8c-2,3.5-3.1,7.6-3.1,12.5c0,4.8,1,9,3.1,12.4
	c2.8,4.8,6.3,5.9,8.6,5.9h57.4c-1.4,4.8-2.5,9.9-3.4,15.1c-1,6.8-1.5,13.6-1.5,20.2l-0.1,53.6c0,4.8,1,9,3.1,12.5
	c2.8,4.8,6.3,5.8,8.6,5.8c2.4,0,5.9-1,8.7-5.8c2-3.5,3.1-7.6,3.1-12.4v-53.6c0-3.5,0.2-7.4,0.8-11.6c0.4-4.1,1.3-8,2.6-11.5
	c1.2-3.4,2.9-6.2,5-8.6c2-2.2,4.6-3.4,7.4-3.7h38.1c3-0.5,5.6-2.7,7.6-6.2c2-3.4,2.9-7.4,2.9-11.9c0-4.8-1-9-3.1-12.4
	C1352.9,71.4,1349.4,70.3,1347.1,70.3z"/>
<g>
	<path class="st0" d="M1515.5,177.4l-117.8-0.1c-0.9,0-1.4-0.3-2-1.1c-0.7-1-1-2.2-1-3.6v-12.4l116.7,0.1c2.4,0,5.8-1,8.6-5.8
		c2-3.5,3.1-7.6,3.1-12.4c0-4.8-1-9-3.1-12.5c-2.8-4.8-6.3-5.8-8.6-5.8l-125.5-0.1c-4.8,0-8.4,1.2-10.8,3.5c-2.6,2.6-3.8,7-3.8,13.7
		l-0.1,28.4c0,6.7,0.8,12.6,2.2,17.9c1.4,5.3,3.3,9.9,5.6,13.8c2.4,4,5,7.1,8.1,9.3c3.1,2.2,6.4,3.5,9.7,3.5l118.6,0.1
		c3.5,0,6.4-1.9,8.7-5.8c2-3.4,3.1-7.5,3.1-12.4c0-4.8-1-9-3.1-12.5C1521.3,178.5,1517.8,177.4,1515.5,177.4z"/>
	<path class="st0" d="M1515.4,70.3l-132.5-0.1c-2.4,0-5.8,1-8.6,5.7c-2,3.5-3.1,7.7-3.1,12.5c0,4.8,1,9,3.1,12.5
		c2.8,4.8,6.3,5.8,8.7,5.8l132.5,0.1c2.4,0,5.8-1,8.6-5.8c2-3.5,3.1-7.6,3.1-12.5c0-4.8-1-8.9-3.1-12.4
		C1521.8,72.2,1518.9,70.3,1515.4,70.3z"/>
</g>
<path class="st0" d="M1687.1,177.4h-105c-3.7,0-6.6-1-8.8-3.2c-2.3-2.3-4.2-5.2-5.6-8.6c-1.4-3.5-2.4-7.3-2.9-11.6
	c-0.6-4.2-0.8-8.3-0.8-12c0-3.6,0.2-7.7,0.8-12c0.6-4.2,1.6-8.1,3-11.6c1.3-3.3,3.3-6.2,5.6-8.6c2.2-2.1,5-3.1,8.7-3.1l105.1,0.1
	c2.4,0,5.8-1,8.6-5.8c2-3.5,3.1-7.6,3.1-12.5c0-4.8-1-9-3.1-12.4c-2.8-4.8-6.3-5.9-8.7-5.9l-108.9-0.1c-6,0-11.5,2.4-16.2,7.1
	c-4.5,4.4-8.3,10.2-11.5,17.1c-3.1,6.8-5.4,14.5-7.1,22.8c-1.6,8.2-2.4,16.6-2.4,24.7c0,7.9,0.8,16.2,2.3,24.6
	c1.5,8.3,3.8,16.1,6.7,22.9c2.9,6.9,6.5,12.7,10.8,17.1c4.6,4.8,9.7,7.2,15.5,7.2l110.9,0.1c2.4,0,5.8-1,8.6-5.8
	c2-3.5,3.1-7.6,3.1-12.5c0-4.8-1.1-9-3.1-12.4C1693,178.4,1689.5,177.4,1687.1,177.4z"/>
<g>
	<linearGradient id="SVGID_1_" gradientUnits="userSpaceOnUse" x1="220.1992" y1="21.8643" x2="186.4149" y2="262.2518">
		<stop  offset="0" style="stop-color:#FAA31A"/>
		<stop  offset="0" style="stop-color:#FBAB19"/>
		<stop  offset="0" style="stop-color:#FBAD18"/>
		<stop  offset="0.364" style="stop-color:#FBAD18"/>
		<stop  offset="0.3674" style="stop-color:#FBAD18"/>
		<stop  offset="0.5456" style="stop-color:#F8951F"/>
		<stop  offset="0.7151" style="stop-color:#F58422"/>
		<stop  offset="0.8709" style="stop-color:#F47923"/>
		<stop  offset="1" style="stop-color:#F47623"/>
	</linearGradient>
	<circle class="st1" cx="203.3" cy="142.1" r="121.4"/>
	<linearGradient id="SVGID_2_" gradientUnits="userSpaceOnUse" x1="120.585" y1="105.5575" x2="311.5673" y2="105.5575">
		<stop  offset="0" style="stop-color:#FFFFFF"/>
		<stop  offset="1" style="stop-color:#FFFFFF"/>
	</linearGradient>
	<path class="st2" d="M303.6,179c2.5-6.2,4.5-12.7,5.8-19.6c11.6-57.7-25.3-113.3-82.1-125.1c-41.3-8.6-82.4,8.3-106.8,40
		c16-0.6,32.3,0.7,48.7,4.1C229.6,90.9,277.8,129.2,303.6,179z"/>
</g>
<line class="st3" x1="1371" y1="385.9" x2="1839.2" y2="385.9"/>
<path class="st4" d="M1478.9,322.2v74.7 M1476.7,396.9h107.6 M1319.5,324.5h157.3"/>
<path class="st5" d="M1332.5,308.5h210.6 M1540.9,310.8v-34.5"/>
<path class="st6" d="M862.6,360.7h694 M1555.4,324.5h185.8"/>
<line class="st3" x1="1319.5" y1="335.4" x2="1372.1" y2="335.4"/>
<line class="st6" x1="1319.5" y1="316.4" x2="1387.8" y2="316.4"/>
<line class="st3" x1="1372.1" y1="387.2" x2="1372.1" y2="334.2"/>
<path class="st6" d="M1387.8,403.9v-88.8 M1556.6,362v-37.5"/>
<line class="st7" x1="1411.2" y1="308.6" x2="1411.2" y2="358.6"/>
<path class="st0" d="M1422.1,365.9c0-6-4.9-10.9-10.9-10.9c-6,0-10.9,4.9-10.9,10.9c0,6,4.9,10.9,10.9,10.9
	C1417.2,376.8,1422.1,371.9,1422.1,365.9L1422.1,365.9z"/>
<path class="st8" d="M1398.7,407.8c0-6-4.9-10.9-10.9-10.9c-6,0-10.9,4.9-10.9,10.9c0,6,4.9,10.9,10.9,10.9
	C1393.8,418.7,1398.7,413.8,1398.7,407.8L1398.7,407.8z"/>
<path class="st4" d="M1606.2,396.9c0-6-4.9-10.9-10.9-10.9c-6,0-10.9,4.9-10.9,10.9s4.9,10.9,10.9,10.9
	C1601.3,407.8,1606.2,402.9,1606.2,396.9L1606.2,396.9z"/>
<path class="st8" d="M1763,324.5c0-6-4.9-10.9-10.9-10.9c-6,0-10.9,4.9-10.9,10.9s4.9,10.9,10.9,10.9
	C1758.2,335.4,1763,330.5,1763,324.5L1763,324.5z"/>
<path class="st9" d="M1336.6,297.9h345.1 M1692.6,418.7c0-6-4.9-10.9-10.9-10.9c-6,0-10.9,4.9-10.9,10.9c0,6,4.9,10.9,10.9,10.9
	C1687.7,429.7,1692.6,424.8,1692.6,418.7L1692.6,418.7z"/>
<path class="st3" d="M1861,385.9c0-6-4.9-10.9-10.9-10.9c-6,0-10.9,4.9-10.9,10.9c0,6,4.9,10.9,10.9,10.9
	C1856.1,396.9,1861,392,1861,385.9L1861,385.9z"/>
<path class="st7" d="M1551.8,266c0-6-4.9-10.9-10.9-10.9c-6,0-10.9,4.9-10.9,10.9c0,6,4.9,10.9,10.9,10.9
	C1546.9,276.9,1551.8,272,1551.8,266L1551.8,266z"/>
<path class="st6" d="M1681.7,296.7v111.1 M506.4,385.9H38.3"/>
<path class="st7" d="M398.5,322.9v76.2 M398.5,396.9H293.1 M557.9,324.5H396.2"/>
<path class="st4" d="M557.9,308.6H336.5 M336.5,310.8v-34.5"/>
<path class="st3" d="M844.4,360.7H320.8 M320.8,324.5H136.2"/>
<line class="st6" x1="557.9" y1="335.4" x2="505.3" y2="335.4"/>
<line class="st3" x1="557.9" y1="316.4" x2="489.6" y2="316.4"/>
<line class="st6" x1="505.3" y1="387.2" x2="505.3" y2="334.2"/>
<path class="st3" d="M489.6,403.9v-88.8 M320.8,362v-38.8"/>
<line class="st4" x1="466.2" y1="308.6" x2="466.2" y2="358.6"/>
<path class="st8" d="M455.3,365.9c0-6,4.9-10.9,10.9-10.9c6,0,10.9,4.9,10.9,10.9c0,6-4.9,10.9-10.9,10.9
	C460.2,376.8,455.3,371.9,455.3,365.9L455.3,365.9z"/>
<path class="st0" d="M478.7,407.8c0-6,4.9-10.9,10.9-10.9c6,0,10.9,4.9,10.9,10.9c0,6-4.9,10.9-10.9,10.9
	C483.6,418.7,478.7,413.8,478.7,407.8L478.7,407.8z"/>
<path class="st7" d="M271.2,396.9c0-6,4.9-10.9,10.9-10.9s10.9,4.9,10.9,10.9s-4.9,10.9-10.9,10.9S271.2,402.9,271.2,396.9
	L271.2,396.9z"/>
<path class="st0" d="M114.4,324.5c0-6,4.9-10.9,10.9-10.9c6,0,10.9,4.9,10.9,10.9s-4.9,10.9-10.9,10.9
	C119.3,335.4,114.4,330.5,114.4,324.5L114.4,324.5z"/>
<path class="st3" d="M557.9,297.9H194.5 M184.8,418.7c0-6,4.9-10.9,10.9-10.9c6,0,10.9,4.9,10.9,10.9c0,6-4.9,10.9-10.9,10.9
	C189.7,429.7,184.8,424.8,184.8,418.7L184.8,418.7z"/>
<path class="st6" d="M16.4,385.9c0-6,4.9-10.9,10.9-10.9s10.9,4.9,10.9,10.9c0,6-4.9,10.9-10.9,10.9S16.4,392,16.4,385.9L16.4,385.9
	z"/>
<path class="st4" d="M325.6,266c0-6,4.9-10.9,10.9-10.9c6,0,10.9,4.9,10.9,10.9c0,6-4.9,10.9-10.9,10.9
	C330.5,276.9,325.6,272,325.6,266L325.6,266z"/>
<line class="st3" x1="195.8" y1="297.9" x2="195.8" y2="407.8"/>
<text transform="matrix(1 0 0 1 567.1064 347.4186)" class="st0 st10 st11">Creating Abundance</text>
<rect x="15.1" y="245.4" class="st12" width="1847.3" height="185.6"/>
<g>
	<path class="st0" d="M1325.9,301.1c-0.8-1.2-1.4-2.1-1.9-2.6c-0.3-0.3-0.7-0.5-1.1-0.7c1.1-0.1,2-0.5,2.7-1.2c0.7-0.7,1-1.5,1-2.5
		c0-0.7-0.2-1.3-0.6-1.9c-0.4-0.6-1-1-1.6-1.3s-1.8-0.4-3.3-0.4h-4.5v13.1h2.1v-5.6h1.2c0.7,0,1.3,0.2,1.7,0.5
		c0.6,0.4,1.3,1.4,2.2,3l1.2,2.1h2.6L1325.9,301.1z M1321.2,296.3h-2.6v-4h2.4c1,0,1.7,0.1,2.1,0.2c0.4,0.2,0.7,0.4,0.9,0.7
		c0.2,0.3,0.3,0.7,0.3,1c0,0.6-0.2,1.1-0.7,1.5S1322.4,296.3,1321.2,296.3z"/>
	<path class="st0" d="M1321.8,287c5.6,0,10.1,4.5,10.1,10.1s-4.5,10.1-10.1,10.1c-5.6,0-10.1-4.5-10.1-10.1S1316.2,287,1321.8,287
		 M1321.8,285.8c-6.2,0-11.3,5.1-11.3,11.3s5.1,11.3,11.3,11.3s11.3-5.1,11.3-11.3S1328.1,285.8,1321.8,285.8L1321.8,285.8z"/>
</g>
<g>
	<path class="st0" d="M1717.7,207.8c-0.8-1.2-1.4-2.1-1.9-2.6c-0.3-0.3-0.7-0.5-1.1-0.7c1.1-0.1,2-0.5,2.7-1.2c0.7-0.7,1-1.5,1-2.5
		c0-0.7-0.2-1.3-0.6-1.9c-0.4-0.6-1-1-1.6-1.3c-0.7-0.2-1.8-0.4-3.3-0.4h-4.5v13.1h2.1v-5.6h1.2c0.7,0,1.3,0.2,1.7,0.5
		c0.6,0.4,1.3,1.4,2.2,3l1.2,2.1h2.6L1717.7,207.8z M1713,203h-2.6v-4h2.4c1,0,1.7,0.1,2.1,0.2c0.4,0.2,0.7,0.4,0.9,0.7
		c0.2,0.3,0.3,0.7,0.3,1c0,0.6-0.2,1.1-0.7,1.5S1714.2,203,1713,203z"/>
	<path class="st0" d="M1713.6,193.7c5.6,0,10.1,4.5,10.1,10.1s-4.5,10.1-10.1,10.1c-5.6,0-10.1-4.5-10.1-10.1
		S1708,193.7,1713.6,193.7 M1713.6,192.5c-6.2,0-11.3,5.1-11.3,11.3c0,6.2,5.1,11.3,11.3,11.3s11.3-5.1,11.3-11.3
		C1725,197.6,1719.9,192.5,1713.6,192.5L1713.6,192.5z"/>
</g>
</svg>
